<mxfile host="app.diagrams.net" modified="2021-04-01T10:09:47.812Z" agent="5.0 (X11; Linux x86_64) AppleWebKit/537.36 (KHTML, like Gecko) Chrome/89.0.4389.114 Safari/537.36" etag="7Ogph1fadJzHyN7FhtZV" version="14.5.4" type="github">
  <diagram id="C5RBs43oDa-KdzZeNtuy" name="Page-1">
    <mxGraphModel dx="1684" dy="1759" grid="1" gridSize="10" guides="1" tooltips="1" connect="0" arrows="1" fold="1" page="1" pageScale="1" pageWidth="827" pageHeight="1169" math="0" shadow="0">
      <root>
        <mxCell id="WIyWlLk6GJQsqaUBKTNV-0" />
        <mxCell id="WIyWlLk6GJQsqaUBKTNV-1" parent="WIyWlLk6GJQsqaUBKTNV-0" />
        <mxCell id="WIyWlLk6GJQsqaUBKTNV-4" value="Yes" style="rounded=0;html=1;jettySize=auto;orthogonalLoop=1;fontSize=11;endArrow=block;endFill=0;endSize=8;strokeWidth=1;shadow=0;labelBackgroundColor=none;edgeStyle=orthogonalEdgeStyle;" parent="WIyWlLk6GJQsqaUBKTNV-1" source="WIyWlLk6GJQsqaUBKTNV-6" edge="1">
          <mxGeometry y="20" relative="1" as="geometry">
            <mxPoint as="offset" />
            <mxPoint x="220" y="289.9999999999998" as="targetPoint" />
          </mxGeometry>
        </mxCell>
        <mxCell id="WIyWlLk6GJQsqaUBKTNV-5" value="No" style="edgeStyle=orthogonalEdgeStyle;rounded=0;html=1;jettySize=auto;orthogonalLoop=1;fontSize=11;endArrow=block;endFill=0;endSize=8;strokeWidth=1;shadow=0;labelBackgroundColor=none;entryX=0;entryY=0.5;entryDx=0;entryDy=0;" parent="WIyWlLk6GJQsqaUBKTNV-1" source="WIyWlLk6GJQsqaUBKTNV-6" target="jjlgMuqm8_raB_bd8EMO-65" edge="1">
          <mxGeometry y="10" relative="1" as="geometry">
            <mxPoint as="offset" />
          </mxGeometry>
        </mxCell>
        <mxCell id="WIyWlLk6GJQsqaUBKTNV-6" value="Exist Licensefile?" style="rhombus;whiteSpace=wrap;html=1;shadow=0;fontFamily=Helvetica;fontSize=12;align=center;strokeWidth=1;spacing=6;spacingTop=-4;" parent="WIyWlLk6GJQsqaUBKTNV-1" vertex="1">
          <mxGeometry x="170" y="60" width="100" height="80" as="geometry" />
        </mxCell>
        <mxCell id="jjlgMuqm8_raB_bd8EMO-10" value="" style="edgeStyle=orthogonalEdgeStyle;rounded=0;orthogonalLoop=1;jettySize=auto;html=1;exitX=1;exitY=0.5;exitDx=0;exitDy=0;" edge="1" parent="WIyWlLk6GJQsqaUBKTNV-1" source="jjlgMuqm8_raB_bd8EMO-65" target="jjlgMuqm8_raB_bd8EMO-9">
          <mxGeometry relative="1" as="geometry">
            <mxPoint x="510" y="180" as="sourcePoint" />
          </mxGeometry>
        </mxCell>
        <mxCell id="jjlgMuqm8_raB_bd8EMO-1" value="Prepare Basic Info" style="rounded=1;whiteSpace=wrap;html=1;" vertex="1" parent="WIyWlLk6GJQsqaUBKTNV-1">
          <mxGeometry x="160" y="-60" width="120" height="40" as="geometry" />
        </mxCell>
        <mxCell id="jjlgMuqm8_raB_bd8EMO-12" style="edgeStyle=orthogonalEdgeStyle;rounded=0;orthogonalLoop=1;jettySize=auto;html=1;" edge="1" parent="WIyWlLk6GJQsqaUBKTNV-1" source="jjlgMuqm8_raB_bd8EMO-5" target="WIyWlLk6GJQsqaUBKTNV-6">
          <mxGeometry relative="1" as="geometry">
            <Array as="points">
              <mxPoint x="220" y="30" />
            </Array>
          </mxGeometry>
        </mxCell>
        <mxCell id="jjlgMuqm8_raB_bd8EMO-5" value="Generate a new file in Licensefile&amp;nbsp;" style="rounded=1;whiteSpace=wrap;html=1;" vertex="1" parent="WIyWlLk6GJQsqaUBKTNV-1">
          <mxGeometry x="455" width="110" height="40" as="geometry" />
        </mxCell>
        <mxCell id="jjlgMuqm8_raB_bd8EMO-7" value="" style="shape=curlyBracket;whiteSpace=wrap;html=1;rounded=1;rotation=-90;size=0.5;" vertex="1" parent="WIyWlLk6GJQsqaUBKTNV-1">
          <mxGeometry x="182.5" y="-150" width="75" height="120" as="geometry" />
        </mxCell>
        <mxCell id="jjlgMuqm8_raB_bd8EMO-8" value="&lt;ul&gt;&lt;li&gt;date&lt;/li&gt;&lt;li&gt;machineCode&lt;/li&gt;&lt;li&gt;privateKey&lt;/li&gt;&lt;li&gt;iv&lt;/li&gt;&lt;li&gt;mode&lt;/li&gt;&lt;/ul&gt;" style="text;strokeColor=none;fillColor=none;html=1;whiteSpace=wrap;verticalAlign=middle;overflow=hidden;" vertex="1" parent="WIyWlLk6GJQsqaUBKTNV-1">
          <mxGeometry x="155" y="-200" width="120" height="100" as="geometry" />
        </mxCell>
        <mxCell id="jjlgMuqm8_raB_bd8EMO-11" value="" style="edgeStyle=orthogonalEdgeStyle;rounded=0;orthogonalLoop=1;jettySize=auto;html=1;" edge="1" parent="WIyWlLk6GJQsqaUBKTNV-1" source="jjlgMuqm8_raB_bd8EMO-9" target="jjlgMuqm8_raB_bd8EMO-5">
          <mxGeometry relative="1" as="geometry" />
        </mxCell>
        <mxCell id="jjlgMuqm8_raB_bd8EMO-9" value="Generate authCode" style="whiteSpace=wrap;html=1;rounded=1;shadow=0;strokeWidth=1;glass=0;" vertex="1" parent="WIyWlLk6GJQsqaUBKTNV-1">
          <mxGeometry x="460" y="80" width="100" height="40" as="geometry" />
        </mxCell>
        <mxCell id="jjlgMuqm8_raB_bd8EMO-18" value="" style="edgeStyle=orthogonalEdgeStyle;rounded=0;orthogonalLoop=1;jettySize=auto;html=1;" edge="1" parent="WIyWlLk6GJQsqaUBKTNV-1" source="jjlgMuqm8_raB_bd8EMO-14">
          <mxGeometry relative="1" as="geometry">
            <mxPoint x="220" y="390" as="targetPoint" />
          </mxGeometry>
        </mxCell>
        <mxCell id="jjlgMuqm8_raB_bd8EMO-14" value="Input Code" style="rounded=1;whiteSpace=wrap;html=1;" vertex="1" parent="WIyWlLk6GJQsqaUBKTNV-1">
          <mxGeometry x="165" y="290" width="110" height="40" as="geometry" />
        </mxCell>
        <mxCell id="jjlgMuqm8_raB_bd8EMO-25" value="" style="edgeStyle=orthogonalEdgeStyle;rounded=0;orthogonalLoop=1;jettySize=auto;html=1;" edge="1" parent="WIyWlLk6GJQsqaUBKTNV-1" source="jjlgMuqm8_raB_bd8EMO-23" target="jjlgMuqm8_raB_bd8EMO-24">
          <mxGeometry relative="1" as="geometry" />
        </mxCell>
        <mxCell id="jjlgMuqm8_raB_bd8EMO-23" value="check Code" style="rounded=1;whiteSpace=wrap;html=1;" vertex="1" parent="WIyWlLk6GJQsqaUBKTNV-1">
          <mxGeometry x="180" y="390" width="80" height="40" as="geometry" />
        </mxCell>
        <mxCell id="jjlgMuqm8_raB_bd8EMO-27" value="" style="edgeStyle=orthogonalEdgeStyle;rounded=0;orthogonalLoop=1;jettySize=auto;html=1;" edge="1" parent="WIyWlLk6GJQsqaUBKTNV-1" source="jjlgMuqm8_raB_bd8EMO-24" target="jjlgMuqm8_raB_bd8EMO-26">
          <mxGeometry relative="1" as="geometry" />
        </mxCell>
        <mxCell id="jjlgMuqm8_raB_bd8EMO-24" value="Whether Input codeï¼Ÿ" style="rhombus;whiteSpace=wrap;html=1;" vertex="1" parent="WIyWlLk6GJQsqaUBKTNV-1">
          <mxGeometry x="180" y="450" width="80" height="80" as="geometry" />
        </mxCell>
        <mxCell id="jjlgMuqm8_raB_bd8EMO-26" value="Return Error:Input Nothing" style="rounded=1;whiteSpace=wrap;html=1;" vertex="1" parent="WIyWlLk6GJQsqaUBKTNV-1">
          <mxGeometry x="293" y="470" width="120" height="40" as="geometry" />
        </mxCell>
        <mxCell id="jjlgMuqm8_raB_bd8EMO-28" value="Yes" style="text;html=1;align=center;verticalAlign=middle;resizable=0;points=[];autosize=1;" vertex="1" parent="WIyWlLk6GJQsqaUBKTNV-1">
          <mxGeometry x="220" y="540" width="40" height="20" as="geometry" />
        </mxCell>
        <mxCell id="jjlgMuqm8_raB_bd8EMO-29" value="No" style="text;html=1;align=center;verticalAlign=middle;resizable=0;points=[];autosize=1;" vertex="1" parent="WIyWlLk6GJQsqaUBKTNV-1">
          <mxGeometry x="260" y="460" width="30" height="20" as="geometry" />
        </mxCell>
        <mxCell id="jjlgMuqm8_raB_bd8EMO-34" value="" style="edgeStyle=orthogonalEdgeStyle;rounded=0;orthogonalLoop=1;jettySize=auto;html=1;" edge="1" parent="WIyWlLk6GJQsqaUBKTNV-1" source="jjlgMuqm8_raB_bd8EMO-31" target="jjlgMuqm8_raB_bd8EMO-33">
          <mxGeometry relative="1" as="geometry" />
        </mxCell>
        <mxCell id="jjlgMuqm8_raB_bd8EMO-31" value="file:authCode==&lt;br&gt;input Code?" style="rhombus;whiteSpace=wrap;html=1;" vertex="1" parent="WIyWlLk6GJQsqaUBKTNV-1">
          <mxGeometry x="165" y="630" width="110" height="90" as="geometry" />
        </mxCell>
        <mxCell id="jjlgMuqm8_raB_bd8EMO-33" value="Return Error:Error Code" style="rounded=1;whiteSpace=wrap;html=1;" vertex="1" parent="WIyWlLk6GJQsqaUBKTNV-1">
          <mxGeometry x="293" y="655" width="120" height="40" as="geometry" />
        </mxCell>
        <mxCell id="jjlgMuqm8_raB_bd8EMO-35" value="No" style="text;html=1;align=center;verticalAlign=middle;resizable=0;points=[];autosize=1;" vertex="1" parent="WIyWlLk6GJQsqaUBKTNV-1">
          <mxGeometry x="265" y="640" width="30" height="20" as="geometry" />
        </mxCell>
        <mxCell id="jjlgMuqm8_raB_bd8EMO-36" value="Reurn file:encode" style="rounded=1;whiteSpace=wrap;html=1;" vertex="1" parent="WIyWlLk6GJQsqaUBKTNV-1">
          <mxGeometry x="160" y="780" width="120" height="40" as="geometry" />
        </mxCell>
        <mxCell id="jjlgMuqm8_raB_bd8EMO-42" value="Decode&lt;br&gt;Success?" style="rhombus;whiteSpace=wrap;html=1;" vertex="1" parent="WIyWlLk6GJQsqaUBKTNV-1">
          <mxGeometry x="180" y="860" width="80" height="80" as="geometry" />
        </mxCell>
        <mxCell id="jjlgMuqm8_raB_bd8EMO-43" value="Validate date?" style="rhombus;whiteSpace=wrap;html=1;" vertex="1" parent="WIyWlLk6GJQsqaUBKTNV-1">
          <mxGeometry x="180" y="1089" width="80" height="80" as="geometry" />
        </mxCell>
        <mxCell id="jjlgMuqm8_raB_bd8EMO-49" value="" style="edgeStyle=orthogonalEdgeStyle;rounded=0;orthogonalLoop=1;jettySize=auto;html=1;" edge="1" parent="WIyWlLk6GJQsqaUBKTNV-1" source="jjlgMuqm8_raB_bd8EMO-46" target="jjlgMuqm8_raB_bd8EMO-48">
          <mxGeometry relative="1" as="geometry" />
        </mxCell>
        <mxCell id="jjlgMuqm8_raB_bd8EMO-46" value="Successful Validation" style="whiteSpace=wrap;html=1;" vertex="1" parent="WIyWlLk6GJQsqaUBKTNV-1">
          <mxGeometry x="160" y="1199" width="120" height="30" as="geometry" />
        </mxCell>
        <mxCell id="jjlgMuqm8_raB_bd8EMO-48" value="Done" style="ellipse;whiteSpace=wrap;html=1;" vertex="1" parent="WIyWlLk6GJQsqaUBKTNV-1">
          <mxGeometry x="192.5" y="1259" width="55" height="40" as="geometry" />
        </mxCell>
        <mxCell id="jjlgMuqm8_raB_bd8EMO-50" value="Yes" style="text;html=1;align=center;verticalAlign=middle;resizable=0;points=[];autosize=1;" vertex="1" parent="WIyWlLk6GJQsqaUBKTNV-1">
          <mxGeometry x="225" y="950" width="40" height="20" as="geometry" />
        </mxCell>
        <mxCell id="jjlgMuqm8_raB_bd8EMO-52" value="Yes" style="text;html=1;align=center;verticalAlign=middle;resizable=0;points=[];autosize=1;" vertex="1" parent="WIyWlLk6GJQsqaUBKTNV-1">
          <mxGeometry x="225" y="1169" width="40" height="20" as="geometry" />
        </mxCell>
        <mxCell id="jjlgMuqm8_raB_bd8EMO-53" value="Error" style="ellipse;whiteSpace=wrap;html=1;" vertex="1" parent="WIyWlLk6GJQsqaUBKTNV-1">
          <mxGeometry x="445" y="1199" width="85" height="30" as="geometry" />
        </mxCell>
        <mxCell id="jjlgMuqm8_raB_bd8EMO-57" value="" style="endArrow=classic;html=1;entryX=0.416;entryY=0;entryDx=0;entryDy=0;entryPerimeter=0;" edge="1" parent="WIyWlLk6GJQsqaUBKTNV-1" target="jjlgMuqm8_raB_bd8EMO-53">
          <mxGeometry width="50" height="50" relative="1" as="geometry">
            <mxPoint x="413" y="490" as="sourcePoint" />
            <mxPoint x="480" y="990" as="targetPoint" />
            <Array as="points">
              <mxPoint x="480" y="490" />
            </Array>
          </mxGeometry>
        </mxCell>
        <mxCell id="jjlgMuqm8_raB_bd8EMO-59" value="" style="endArrow=classic;html=1;" edge="1" parent="WIyWlLk6GJQsqaUBKTNV-1">
          <mxGeometry width="50" height="50" relative="1" as="geometry">
            <mxPoint x="260" y="899.58" as="sourcePoint" />
            <mxPoint x="480" y="900" as="targetPoint" />
            <Array as="points" />
          </mxGeometry>
        </mxCell>
        <mxCell id="jjlgMuqm8_raB_bd8EMO-60" value="" style="endArrow=classic;html=1;" edge="1" parent="WIyWlLk6GJQsqaUBKTNV-1">
          <mxGeometry width="50" height="50" relative="1" as="geometry">
            <mxPoint x="413" y="675" as="sourcePoint" />
            <mxPoint x="480" y="675" as="targetPoint" />
          </mxGeometry>
        </mxCell>
        <mxCell id="jjlgMuqm8_raB_bd8EMO-62" value="No" style="text;html=1;align=center;verticalAlign=middle;resizable=0;points=[];autosize=1;" vertex="1" parent="WIyWlLk6GJQsqaUBKTNV-1">
          <mxGeometry x="245" y="870" width="30" height="20" as="geometry" />
        </mxCell>
        <mxCell id="jjlgMuqm8_raB_bd8EMO-65" value="Use keyGen to generate en_code" style="rounded=1;whiteSpace=wrap;html=1;" vertex="1" parent="WIyWlLk6GJQsqaUBKTNV-1">
          <mxGeometry x="310" y="70" width="120" height="60" as="geometry" />
        </mxCell>
        <mxCell id="jjlgMuqm8_raB_bd8EMO-67" style="edgeStyle=orthogonalEdgeStyle;rounded=0;orthogonalLoop=1;jettySize=auto;html=1;exitX=0.5;exitY=1;exitDx=0;exitDy=0;" edge="1" parent="WIyWlLk6GJQsqaUBKTNV-1" source="jjlgMuqm8_raB_bd8EMO-1" target="jjlgMuqm8_raB_bd8EMO-1">
          <mxGeometry relative="1" as="geometry" />
        </mxCell>
        <mxCell id="jjlgMuqm8_raB_bd8EMO-73" value="Check on&amp;nbsp; Right Machine?" style="rhombus;whiteSpace=wrap;html=1;" vertex="1" parent="WIyWlLk6GJQsqaUBKTNV-1">
          <mxGeometry x="180" y="980" width="80" height="80" as="geometry" />
        </mxCell>
        <mxCell id="jjlgMuqm8_raB_bd8EMO-75" value="" style="endArrow=classic;html=1;exitX=1;exitY=0.5;exitDx=0;exitDy=0;" edge="1" parent="WIyWlLk6GJQsqaUBKTNV-1" source="jjlgMuqm8_raB_bd8EMO-73">
          <mxGeometry width="50" height="50" relative="1" as="geometry">
            <mxPoint x="266" y="1020" as="sourcePoint" />
            <mxPoint x="300" y="1020" as="targetPoint" />
          </mxGeometry>
        </mxCell>
        <mxCell id="jjlgMuqm8_raB_bd8EMO-76" value="No" style="text;html=1;align=center;verticalAlign=middle;resizable=0;points=[];autosize=1;" vertex="1" parent="WIyWlLk6GJQsqaUBKTNV-1">
          <mxGeometry x="270" y="990" width="30" height="20" as="geometry" />
        </mxCell>
        <mxCell id="jjlgMuqm8_raB_bd8EMO-77" value="Yes" style="text;html=1;align=center;verticalAlign=middle;resizable=0;points=[];autosize=1;" vertex="1" parent="WIyWlLk6GJQsqaUBKTNV-1">
          <mxGeometry x="225" y="750" width="40" height="20" as="geometry" />
        </mxCell>
        <mxCell id="jjlgMuqm8_raB_bd8EMO-81" value="" style="endArrow=classic;html=1;" edge="1" parent="WIyWlLk6GJQsqaUBKTNV-1">
          <mxGeometry width="50" height="50" relative="1" as="geometry">
            <mxPoint x="220" y="820" as="sourcePoint" />
            <mxPoint x="220" y="860" as="targetPoint" />
          </mxGeometry>
        </mxCell>
        <mxCell id="jjlgMuqm8_raB_bd8EMO-83" value="Return Error: On Different Device" style="rounded=1;whiteSpace=wrap;html=1;" vertex="1" parent="WIyWlLk6GJQsqaUBKTNV-1">
          <mxGeometry x="300" y="1000" width="120" height="40" as="geometry" />
        </mxCell>
        <mxCell id="jjlgMuqm8_raB_bd8EMO-85" value="" style="endArrow=classic;html=1;entryX=0.5;entryY=0;entryDx=0;entryDy=0;" edge="1" parent="WIyWlLk6GJQsqaUBKTNV-1" target="WIyWlLk6GJQsqaUBKTNV-6">
          <mxGeometry width="50" height="50" relative="1" as="geometry">
            <mxPoint x="220" y="-20" as="sourcePoint" />
            <mxPoint x="270" y="-70" as="targetPoint" />
          </mxGeometry>
        </mxCell>
        <mxCell id="jjlgMuqm8_raB_bd8EMO-86" value="checkAuthFile(code)" style="text;html=1;align=center;verticalAlign=middle;resizable=0;points=[];autosize=1;" vertex="1" parent="WIyWlLk6GJQsqaUBKTNV-1">
          <mxGeometry x="270" y="400" width="120" height="20" as="geometry" />
        </mxCell>
        <mxCell id="jjlgMuqm8_raB_bd8EMO-87" value="Read licensefile.skm" style="rounded=1;whiteSpace=wrap;html=1;" vertex="1" parent="WIyWlLk6GJQsqaUBKTNV-1">
          <mxGeometry x="160" y="560" width="120" height="60" as="geometry" />
        </mxCell>
        <mxCell id="jjlgMuqm8_raB_bd8EMO-89" value="" style="endArrow=classic;html=1;exitX=0.5;exitY=1;exitDx=0;exitDy=0;entryX=0.5;entryY=0;entryDx=0;entryDy=0;" edge="1" parent="WIyWlLk6GJQsqaUBKTNV-1" source="jjlgMuqm8_raB_bd8EMO-24" target="jjlgMuqm8_raB_bd8EMO-87">
          <mxGeometry width="50" height="50" relative="1" as="geometry">
            <mxPoint x="329" y="570" as="sourcePoint" />
            <mxPoint x="370" y="570" as="targetPoint" />
          </mxGeometry>
        </mxCell>
        <mxCell id="jjlgMuqm8_raB_bd8EMO-90" value="" style="endArrow=classic;html=1;entryX=0.5;entryY=0;entryDx=0;entryDy=0;" edge="1" parent="WIyWlLk6GJQsqaUBKTNV-1" target="jjlgMuqm8_raB_bd8EMO-31">
          <mxGeometry width="50" height="50" relative="1" as="geometry">
            <mxPoint x="220" y="620" as="sourcePoint" />
            <mxPoint x="270" y="570" as="targetPoint" />
          </mxGeometry>
        </mxCell>
        <mxCell id="jjlgMuqm8_raB_bd8EMO-91" value="" style="endArrow=classic;html=1;" edge="1" parent="WIyWlLk6GJQsqaUBKTNV-1">
          <mxGeometry width="50" height="50" relative="1" as="geometry">
            <mxPoint x="219.67" y="720" as="sourcePoint" />
            <mxPoint x="219.17" y="780" as="targetPoint" />
            <Array as="points">
              <mxPoint x="219.17" y="750" />
            </Array>
          </mxGeometry>
        </mxCell>
        <mxCell id="jjlgMuqm8_raB_bd8EMO-92" value="checkKey(reecordCode,key,mode,iv)" style="text;html=1;align=center;verticalAlign=middle;resizable=0;points=[];autosize=1;" vertex="1" parent="WIyWlLk6GJQsqaUBKTNV-1">
          <mxGeometry x="-12.5" y="860" width="210" height="20" as="geometry" />
        </mxCell>
        <mxCell id="jjlgMuqm8_raB_bd8EMO-95" value="Return &quot;INVALID CODE&quot;" style="rounded=1;whiteSpace=wrap;html=1;" vertex="1" parent="WIyWlLk6GJQsqaUBKTNV-1">
          <mxGeometry x="300" y="1114" width="120" height="30" as="geometry" />
        </mxCell>
        <mxCell id="jjlgMuqm8_raB_bd8EMO-96" value="" style="endArrow=classic;html=1;entryX=0.5;entryY=0;entryDx=0;entryDy=0;" edge="1" parent="WIyWlLk6GJQsqaUBKTNV-1" target="jjlgMuqm8_raB_bd8EMO-46">
          <mxGeometry width="50" height="50" relative="1" as="geometry">
            <mxPoint x="220" y="1169" as="sourcePoint" />
            <mxPoint x="270" y="1119" as="targetPoint" />
          </mxGeometry>
        </mxCell>
        <mxCell id="jjlgMuqm8_raB_bd8EMO-97" value="" style="endArrow=classic;html=1;entryX=0;entryY=0.5;entryDx=0;entryDy=0;" edge="1" parent="WIyWlLk6GJQsqaUBKTNV-1" target="jjlgMuqm8_raB_bd8EMO-95">
          <mxGeometry width="50" height="50" relative="1" as="geometry">
            <mxPoint x="260" y="1130" as="sourcePoint" />
            <mxPoint x="310" y="1080" as="targetPoint" />
          </mxGeometry>
        </mxCell>
        <mxCell id="jjlgMuqm8_raB_bd8EMO-98" value="" style="endArrow=classic;html=1;entryX=0.5;entryY=0;entryDx=0;entryDy=0;" edge="1" parent="WIyWlLk6GJQsqaUBKTNV-1" target="jjlgMuqm8_raB_bd8EMO-73">
          <mxGeometry width="50" height="50" relative="1" as="geometry">
            <mxPoint x="220" y="940" as="sourcePoint" />
            <mxPoint x="270" y="890" as="targetPoint" />
          </mxGeometry>
        </mxCell>
        <mxCell id="jjlgMuqm8_raB_bd8EMO-99" value="" style="endArrow=classic;html=1;entryX=0.5;entryY=0;entryDx=0;entryDy=0;" edge="1" parent="WIyWlLk6GJQsqaUBKTNV-1" target="jjlgMuqm8_raB_bd8EMO-43">
          <mxGeometry width="50" height="50" relative="1" as="geometry">
            <mxPoint x="220" y="1060" as="sourcePoint" />
            <mxPoint x="270" y="1010" as="targetPoint" />
          </mxGeometry>
        </mxCell>
        <mxCell id="jjlgMuqm8_raB_bd8EMO-100" value="" style="endArrow=classic;html=1;" edge="1" parent="WIyWlLk6GJQsqaUBKTNV-1">
          <mxGeometry width="50" height="50" relative="1" as="geometry">
            <mxPoint x="420" y="1020" as="sourcePoint" />
            <mxPoint x="480" y="1020" as="targetPoint" />
          </mxGeometry>
        </mxCell>
        <mxCell id="jjlgMuqm8_raB_bd8EMO-101" value="" style="endArrow=classic;html=1;" edge="1" parent="WIyWlLk6GJQsqaUBKTNV-1">
          <mxGeometry width="50" height="50" relative="1" as="geometry">
            <mxPoint x="420" y="1130" as="sourcePoint" />
            <mxPoint x="480" y="1130" as="targetPoint" />
          </mxGeometry>
        </mxCell>
      </root>
    </mxGraphModel>
  </diagram>
</mxfile>
